<svg xmlns="http://www.w3.org/2000/svg" width="652" height="358" viewBox="0 0 652 358"><defs><clipPath id="ef1ha"><path fill="#fff" d="M428 104V29h75v75zm37.521-5.222c17.857 0 32.334-14.476 32.334-32.333S483.378 34.11 465.52 34.11c-17.857 0-32.333 14.477-32.333 32.334 0 17.857 14.476 32.333 32.333 32.333z"/></clipPath><clipPath id="ef1hb"><path fill="#fff" d="M9 89V44h46v45zm23.127-5.145c9.616 0 17.41-7.795 17.41-17.41 0-9.616-7.794-17.41-17.41-17.41-9.615 0-17.41 7.794-17.41 17.41 0 9.615 7.795 17.41 17.41 17.41z"/></clipPath><clipPath id="ef1hc"><path fill="#fff" d="M50 358v-76h76v76zm38.09-5.528c17.857 0 32.333-14.476 32.333-32.334 0-17.857-14.476-32.333-32.334-32.333-17.857 0-32.333 14.476-32.333 32.333 0 17.858 14.476 32.334 32.333 32.334z"/></clipPath><mask id="ef1he" width="2" height="2" x="-1" y="-1"><path fill="#fff" d="M353 132h254v51H353z"/><path d="M358.598 182.721a5 5 0 0 1-5-5v-40.366a5 5 0 0 1 5-5H601.67a5 5 0 0 1 5 5v40.366a5 5 0 0 1-5 5z"/></mask><filter id="ef1hd" width="286" height="86" x="337" y="116" filterUnits="userSpaceOnUse"><feOffset dy="3" in="SourceGraphic" result="FeOffset1112Out"/><feGaussianBlur in="FeOffset1112Out" result="FeGaussianBlur1113Out" stdDeviation="2.4 2.4"/></filter><mask id="ef1hg" width="2" height="2" x="-1" y="-1"><path fill="#fff" d="M394 193h254v51H394z"/><path d="M399.014 243.658a5 5 0 0 1-5-5v-40.366a5 5 0 0 1 5-5h243.072a5 5 0 0 1 5 5v40.366a5 5 0 0 1-5 5z"/></mask><filter id="ef1hf" width="286" height="86" x="378" y="177" filterUnits="userSpaceOnUse"><feOffset dy="3" in="SourceGraphic" result="FeOffset1128Out"/><feGaussianBlur in="FeOffset1128Out" result="FeGaussianBlur1129Out" stdDeviation="2.4 2.4"/></filter></defs><g><g><g><g><path fill="#f6f7fa" d="M128.09 320.138c-22.092 0-40-17.908-40-40V106.444c0-22.091 17.908-40 40-40h368.317c22.091 0 40 17.909 40 40v173.694c0 22.092-17.909 40-40 40z"/></g></g><g><path fill="#029fff" d="M433.188 66.445c0-17.857 14.476-32.334 32.333-32.334s32.334 14.477 32.334 32.334c0 17.857-14.477 32.333-32.334 32.333-17.857 0-32.333-14.476-32.333-32.333z"/><path fill="none" stroke="#f6f7fa" stroke-linecap="round" stroke-linejoin="round" stroke-miterlimit="20" stroke-width="10" d="M433.188 66.445c0-17.857 14.476-32.334 32.333-32.334s32.334 14.477 32.334 32.334c0 17.857-14.477 32.333-32.334 32.333-17.857 0-32.333-14.476-32.333-32.333z" clip-path="url(&quot;#ef1ha&quot;)"/></g><g opacity=".19"><path fill="none" stroke="#fb7b57" stroke-dasharray="12 35" stroke-linecap="round" stroke-linejoin="round" stroke-miterlimit="20" stroke-width="8" d="M63.379 303.218v0S-.578 248.885 4.695 210.721c5.274-38.164 47.04-25.895 55.688-57.164 8.65-31.272-21.051-73.306-21.051-73.306v0"/></g><g><path fill="#ffcf69" d="M14.717 66.445c0-9.616 7.795-17.41 17.41-17.41 9.616 0 17.41 7.794 17.41 17.41 0 9.615-7.794 17.41-17.41 17.41-9.615 0-17.41-7.795-17.41-17.41z"/><path fill="none" stroke="#f6f7fa" stroke-linecap="round" stroke-linejoin="round" stroke-miterlimit="20" stroke-width="10" d="M14.717 66.445c0-9.616 7.795-17.41 17.41-17.41 9.616 0 17.41 7.794 17.41 17.41 0 9.615-7.794 17.41-17.41 17.41-9.615 0-17.41-7.795-17.41-17.41z" clip-path="url(&quot;#ef1hb&quot;)"/></g><g><path fill="#fb7b57" d="M55.756 320.138c0-17.857 14.476-32.333 32.333-32.333 17.858 0 32.334 14.476 32.334 32.333 0 17.858-14.476 32.334-32.334 32.334-17.857 0-32.333-14.476-32.333-32.334z"/><path fill="none" stroke="#f6f7fa" stroke-linecap="round" stroke-linejoin="round" stroke-miterlimit="20" stroke-width="10" d="M55.756 320.138c0-17.857 14.476-32.333 32.333-32.333 17.858 0 32.334 14.476 32.334 32.333 0 17.858-14.476 32.334-32.334 32.334-17.857 0-32.333-14.476-32.333-32.334z" clip-path="url(&quot;#ef1hc&quot;)"/></g><g><g><g><path fill="#029fff" d="M500.546 8.854c3.463-7.1 12.025-10.047 19.124-6.585 7.099 3.463 10.047 12.024 6.584 19.123-3.462 7.1-12.024 10.048-19.123 6.585-7.099-3.462-10.047-12.024-6.585-19.123z"/></g></g><g><path fill="#029fff" d="M502.233 18.927l9.123 7.912-11.442 3.94z"/></g><g><g><path fill="#fff" d="M509.668 15.146a.933.933 0 1 1 1.865 0 .933.933 0 0 1-1.865 0z"/></g><g><path fill="#fff" d="M512.777 15.146a.933.933 0 1 1 1.865 0 .933.933 0 0 1-1.865 0z"/></g><g><path fill="#fff" d="M515.886 15.146a.933.933 0 1 1 1.865 0 .933.933 0 0 1-1.865 0z"/></g></g></g><g><g filter="url(#ef1hd)"><path fill="none" d="M358.598 182.721a5 5 0 0 1-5-5v-40.366a5 5 0 0 1 5-5H601.67a5 5 0 0 1 5 5v40.366a5 5 0 0 1-5 5z" mask="url(&quot;#ef1he&quot;)"/><path fill-opacity=".16" d="M358.598 182.721a5 5 0 0 1-5-5v-40.366a5 5 0 0 1 5-5H601.67a5 5 0 0 1 5 5v40.366a5 5 0 0 1-5 5z"/></g><path fill="#fff" d="M358.598 182.721a5 5 0 0 1-5-5v-40.366a5 5 0 0 1 5-5H601.67a5 5 0 0 1 5 5v40.366a5 5 0 0 1-5 5z"/></g><g><g filter="url(#ef1hf)"><path fill="none" d="M399.014 243.658a5 5 0 0 1-5-5v-40.366a5 5 0 0 1 5-5h243.072a5 5 0 0 1 5 5v40.366a5 5 0 0 1-5 5z" mask="url(&quot;#ef1hg&quot;)"/><path fill-opacity=".16" d="M399.014 243.658a5 5 0 0 1-5-5v-40.366a5 5 0 0 1 5-5h243.072a5 5 0 0 1 5 5v40.366a5 5 0 0 1-5 5z"/></g><path fill="#fff" d="M399.014 243.658a5 5 0 0 1-5-5v-40.366a5 5 0 0 1 5-5h243.072a5 5 0 0 1 5 5v40.366a5 5 0 0 1-5 5z"/></g><g><path fill="#fa5a2c" d="M111.717 80.746a3.109 3.109 0 1 1 6.218 0 3.109 3.109 0 0 1-6.218 0z"/></g><g><path fill="#ffb718" d="M126.02 80.746a3.109 3.109 0 1 1 6.218 0 3.109 3.109 0 0 1-6.218 0z"/></g><g><path fill="#14893b" d="M140.32 80.746a3.109 3.109 0 1 1 6.218 0 3.109 3.109 0 0 1-6.218 0z"/></g></g></g></svg>