<svg xmlns="http://www.w3.org/2000/svg" width="20" height="20" viewBox="0 0 20 20"><g><g><path d="M9.998.012C4.478.012 0 4.489 0 10.01c0 4.418 2.865 8.166 6.838 9.488.5.092.66-.218.66-.48v-1.862c-2.78.605-3.36-1.18-3.36-1.18-.454-1.156-1.11-1.463-1.11-1.463-.907-.62.069-.608.069-.608 1.004.07 1.532 1.031 1.532 1.031.892 1.528 2.34 1.087 2.91.83.089-.645.348-1.086.635-1.336-2.22-.254-4.555-1.111-4.555-4.941a3.87 3.87 0 0 1 1.03-2.684c-.104-.253-.446-1.27.097-2.646 0 0 .84-.269 2.75 1.024a9.59 9.59 0 0 1 2.502-.336c.85.004 1.706.115 2.505.336C14.412 3.89 15.25 4.16 15.25 4.16c.544 1.377.202 2.394.099 2.646.641.7 1.029 1.592 1.029 2.684 0 3.84-2.34 4.686-4.566 4.933.359.31.686.918.686 1.851v2.744c0 .266.16.578.668.48a10.001 10.001 0 0 0 6.831-9.487c0-5.521-4.477-9.998-9.999-9.998z"/></g></g></svg>