<svg xmlns="http://www.w3.org/2000/svg" width="20" height="20" viewBox="0 0 20 20"><g><g><path d="M16.538 4.674a1.2 1.2 0 1 1-2.4.001 1.2 1.2 0 0 1 2.4 0zm-3.205 5.338a3.333 3.333 0 1 0-6.667 0 3.333 3.333 0 0 0 6.667 0zm1.802 0a5.135 5.135 0 1 1-10.27 0 5.135 5.135 0 0 1 10.27 0zM10 .012c2.716 0 3.057.011 4.124.06C17.76.24 19.777 2.262 19.94 5.89c.048 1.067.06 1.407.06 4.123s-.012 3.056-.06 4.123c-.165 3.635-2.188 5.65-5.817 5.817-1.066.048-1.407.06-4.123.06s-3.056-.012-4.123-.06C2.242 19.785.227 17.767.06 14.135.012 13.068 0 12.728 0 10.012s.012-3.056.06-4.124C.228 2.253 2.247.238 5.878.072 6.944.023 7.284.012 10 .012zm-4.04 1.86c-2.713.123-3.976 1.41-4.1 4.099-.047 1.055-.058 1.37-.058 4.04 0 2.672.01 2.987.058 4.042.123 2.684 1.383 3.975 4.1 4.1 1.053.048 1.37.058 4.04.058 2.672 0 2.987-.01 4.042-.058 2.712-.124 3.975-1.412 4.099-4.1.047-1.054.057-1.37.057-4.04s-.009-2.987-.057-4.041c-.123-2.69-1.39-3.976-4.1-4.1-1.054-.048-1.371-.058-4.041-.058-2.67 0-2.986.01-4.04.058z"/></g></g></svg>