<svg xmlns="http://www.w3.org/2000/svg" width="97" height="93" viewBox="0 0 97 93"><g><g><g><path fill="#ff26be" d="M79.286 92.848H17.72c-9.334 0-16.88-7.546-16.88-16.88V16.786C.84 7.45 8.386-.094 17.72-.094h61.566c9.334 0 16.88 7.545 16.88 16.88v59.182c0 9.334-7.546 16.88-16.88 16.88z"/></g><g><path fill="#2e001f" d="M77.776 88.875H19.23c-7.942 0-14.417-6.475-14.417-14.417V18.296c0-7.943 6.475-14.418 14.417-14.418h58.508c7.984 0 14.417 6.475 14.417 14.418V74.42c.038 7.98-6.437 14.455-14.38 14.455z"/></g><g><path fill="#ffd9f2" d="M69.593 39.706c-.557-.24-1.35-.397-2.303-.397-5.007 0-8.5 3.851-8.5 10.25 0 7.31 3.577 10.25 8.065 10.25.953 0 1.987-.119 2.742-.44V39.707zM51.603 49.87c0-9.254 6.158-16.483 15.927-16.483.835 0 1.27 0 2.067.08V22.944c0-.24.198-.397.396-.397h6.277c.316 0 .396.118.396.317v36.464c0 1.071 0 2.421.198 3.893 0 .24-.08.316-.316.438a23.646 23.646 0 0 1-10.17 2.303c-8.62.035-14.779-5.284-14.775-16.09zm-13.071-6.474l11.122 21.368c.199.317.08.637-.24.637h-6.913c-.438 0-.637-.118-.835-.515-2.543-5.243-5.125-10.486-7.786-16.125h-.08a604.513 604.513 0 0 1-7.546 16.167c-.199.317-.397.439-.717.439H18.99c-.397 0-.439-.317-.236-.557l10.882-20.735-10.524-20.972c-.24-.317 0-.557.236-.557h6.833c.397 0 .557.08.713.439 2.502 5.243 5.045 10.646 7.428 15.927h.08c2.303-5.243 4.847-10.684 7.31-15.89.198-.316.316-.514.717-.514h6.394c.317 0 .439.24.24.557z"/></g></g></g></svg>