<svg xmlns="http://www.w3.org/2000/svg" width="62" height="93" viewBox="0 0 62 93"><g><g><g><path fill="#0acf83" d="M15.587 92.871c8.538 0 15.466-6.929 15.466-15.466V61.939H15.587C7.05 61.939.121 68.868.121 77.405c0 8.537 6.929 15.466 15.466 15.466z"/></g><g><path fill="#a259ff" d="M.121 46.473c0-8.538 6.929-15.466 15.466-15.466h15.466v30.932H15.587C7.05 61.939.121 55.01.121 46.473z"/></g><g><path fill="#f24e1e" d="M.121 15.54C.121 7.003 7.05.074 15.587.074h15.466v30.933H15.587C7.05 31.007.121 24.077.121 15.54z"/></g><g><path fill="#ff7262" d="M31.053.074H46.52c8.537 0 15.466 6.93 15.466 15.466 0 8.538-6.93 15.467-15.466 15.467H31.053z"/></g><g><path fill="#1abcfe" d="M61.986 46.473c0 8.537-6.93 15.466-15.466 15.466-8.538 0-15.467-6.929-15.467-15.466 0-8.538 6.93-15.466 15.467-15.466s15.466 6.928 15.466 15.466z"/></g></g></g></svg>